<mxfile host="app.diagrams.net" modified="2022-10-16T02:14:25.434Z" agent="5.0 (Windows NT 10.0; Win64; x64) AppleWebKit/537.36 (KHTML, like Gecko) Chrome/106.0.0.0 Safari/537.36" etag="7nwZMtGuiMaNo0EC_NyT" version="20.4.1" type="github">
  <diagram id="b6acdepvqn-tA0IxzFjr" name="Page-1">
    <mxGraphModel dx="1297" dy="689" grid="1" gridSize="10" guides="1" tooltips="1" connect="1" arrows="1" fold="1" page="1" pageScale="1" pageWidth="850" pageHeight="1100" math="0" shadow="0">
      <root>
        <mxCell id="0" />
        <mxCell id="1" parent="0" />
        <mxCell id="66eMBhZX9WvoQs9t0sJY-48" value="" style="rounded=0;whiteSpace=wrap;html=1;" vertex="1" parent="1">
          <mxGeometry x="20" y="52" width="120" height="60" as="geometry" />
        </mxCell>
        <mxCell id="66eMBhZX9WvoQs9t0sJY-2" value="Actor - User" style="text;html=1;strokeColor=none;fillColor=none;align=center;verticalAlign=middle;whiteSpace=wrap;rounded=0;" vertex="1" parent="1">
          <mxGeometry x="35" y="62" width="90" height="30" as="geometry" />
        </mxCell>
        <mxCell id="66eMBhZX9WvoQs9t0sJY-3" value="Email GUI" style="rounded=0;whiteSpace=wrap;html=1;" vertex="1" parent="1">
          <mxGeometry x="190" y="62" width="120" height="50" as="geometry" />
        </mxCell>
        <mxCell id="66eMBhZX9WvoQs9t0sJY-4" value="Decryption controller" style="rounded=0;whiteSpace=wrap;html=1;" vertex="1" parent="1">
          <mxGeometry x="380" y="62" width="120" height="50" as="geometry" />
        </mxCell>
        <mxCell id="66eMBhZX9WvoQs9t0sJY-5" value="Public Key Database" style="rounded=0;whiteSpace=wrap;html=1;" vertex="1" parent="1">
          <mxGeometry x="570" y="62" width="110" height="50" as="geometry" />
        </mxCell>
        <mxCell id="66eMBhZX9WvoQs9t0sJY-7" value="" style="endArrow=none;dashed=1;html=1;dashPattern=1 3;strokeWidth=2;rounded=0;entryX=0.5;entryY=1;entryDx=0;entryDy=0;" edge="1" parent="1" target="66eMBhZX9WvoQs9t0sJY-3">
          <mxGeometry width="50" height="50" relative="1" as="geometry">
            <mxPoint x="250" y="732" as="sourcePoint" />
            <mxPoint x="450" y="352" as="targetPoint" />
          </mxGeometry>
        </mxCell>
        <mxCell id="66eMBhZX9WvoQs9t0sJY-6" value="" style="rounded=0;whiteSpace=wrap;html=1;" vertex="1" parent="1">
          <mxGeometry x="235" y="142" width="30" height="490" as="geometry" />
        </mxCell>
        <mxCell id="66eMBhZX9WvoQs9t0sJY-9" value="" style="endArrow=none;dashed=1;html=1;dashPattern=1 3;strokeWidth=2;rounded=0;entryX=0.5;entryY=1;entryDx=0;entryDy=0;" edge="1" parent="1">
          <mxGeometry width="50" height="50" relative="1" as="geometry">
            <mxPoint x="440" y="732" as="sourcePoint" />
            <mxPoint x="440" y="112" as="targetPoint" />
          </mxGeometry>
        </mxCell>
        <mxCell id="66eMBhZX9WvoQs9t0sJY-10" value="" style="rounded=0;whiteSpace=wrap;html=1;" vertex="1" parent="1">
          <mxGeometry x="425" y="142" width="30" height="490" as="geometry" />
        </mxCell>
        <mxCell id="66eMBhZX9WvoQs9t0sJY-11" value="" style="endArrow=none;dashed=1;html=1;dashPattern=1 3;strokeWidth=2;rounded=0;entryX=0.5;entryY=1;entryDx=0;entryDy=0;" edge="1" parent="1">
          <mxGeometry width="50" height="50" relative="1" as="geometry">
            <mxPoint x="625" y="732" as="sourcePoint" />
            <mxPoint x="625" y="112" as="targetPoint" />
          </mxGeometry>
        </mxCell>
        <mxCell id="66eMBhZX9WvoQs9t0sJY-12" value="" style="rounded=0;whiteSpace=wrap;html=1;" vertex="1" parent="1">
          <mxGeometry x="610" y="142" width="30" height="490" as="geometry" />
        </mxCell>
        <mxCell id="66eMBhZX9WvoQs9t0sJY-14" value="check email" style="text;html=1;strokeColor=none;fillColor=none;align=center;verticalAlign=middle;whiteSpace=wrap;rounded=0;" vertex="1" parent="1">
          <mxGeometry x="150" y="162" width="85" height="30" as="geometry" />
        </mxCell>
        <mxCell id="66eMBhZX9WvoQs9t0sJY-17" value="" style="html=1;labelBackgroundColor=#ffffff;startArrow=none;startFill=0;startSize=6;endArrow=classic;endFill=1;endSize=6;jettySize=auto;orthogonalLoop=1;strokeWidth=1;dashed=1;fontSize=14;rounded=0;" edge="1" parent="1">
          <mxGeometry width="60" height="60" relative="1" as="geometry">
            <mxPoint x="230" y="532" as="sourcePoint" />
            <mxPoint x="90" y="532" as="targetPoint" />
          </mxGeometry>
        </mxCell>
        <mxCell id="66eMBhZX9WvoQs9t0sJY-19" value="" style="html=1;labelBackgroundColor=#ffffff;startArrow=none;startFill=0;startSize=6;endArrow=classic;endFill=1;endSize=6;jettySize=auto;orthogonalLoop=1;strokeWidth=1;dashed=1;fontSize=14;rounded=0;" edge="1" parent="1">
          <mxGeometry width="60" height="60" relative="1" as="geometry">
            <mxPoint x="140" y="202" as="sourcePoint" />
            <mxPoint x="230" y="202" as="targetPoint" />
          </mxGeometry>
        </mxCell>
        <mxCell id="66eMBhZX9WvoQs9t0sJY-21" value="decrypt email with encrypted img" style="text;html=1;strokeColor=none;fillColor=none;align=center;verticalAlign=middle;whiteSpace=wrap;rounded=0;" vertex="1" parent="1">
          <mxGeometry x="280" y="192" width="130" height="30" as="geometry" />
        </mxCell>
        <mxCell id="66eMBhZX9WvoQs9t0sJY-22" value="" style="endArrow=classic;html=1;rounded=0;" edge="1" parent="1">
          <mxGeometry width="50" height="50" relative="1" as="geometry">
            <mxPoint x="270" y="222" as="sourcePoint" />
            <mxPoint x="420" y="222" as="targetPoint" />
          </mxGeometry>
        </mxCell>
        <mxCell id="66eMBhZX9WvoQs9t0sJY-23" value="" style="endArrow=classic;html=1;rounded=0;exitX=1.167;exitY=0.204;exitDx=0;exitDy=0;exitPerimeter=0;entryX=-0.099;entryY=0.202;entryDx=0;entryDy=0;entryPerimeter=0;" edge="1" parent="1" source="66eMBhZX9WvoQs9t0sJY-10" target="66eMBhZX9WvoQs9t0sJY-12">
          <mxGeometry width="50" height="50" relative="1" as="geometry">
            <mxPoint x="400" y="392" as="sourcePoint" />
            <mxPoint x="450" y="342" as="targetPoint" />
          </mxGeometry>
        </mxCell>
        <mxCell id="66eMBhZX9WvoQs9t0sJY-24" value="get sender&#39;s public key" style="text;html=1;strokeColor=none;fillColor=none;align=center;verticalAlign=middle;whiteSpace=wrap;rounded=0;" vertex="1" parent="1">
          <mxGeometry x="480" y="202" width="100" height="30" as="geometry" />
        </mxCell>
        <mxCell id="66eMBhZX9WvoQs9t0sJY-25" value="" style="html=1;labelBackgroundColor=#ffffff;startArrow=none;startFill=0;startSize=6;endArrow=classic;endFill=1;endSize=6;jettySize=auto;orthogonalLoop=1;strokeWidth=1;dashed=1;fontSize=14;rounded=0;" edge="1" parent="1">
          <mxGeometry width="60" height="60" relative="1" as="geometry">
            <mxPoint x="600" y="262" as="sourcePoint" />
            <mxPoint x="460" y="262" as="targetPoint" />
          </mxGeometry>
        </mxCell>
        <mxCell id="66eMBhZX9WvoQs9t0sJY-27" value="sender&#39;s public key" style="text;html=1;strokeColor=none;fillColor=none;align=center;verticalAlign=middle;whiteSpace=wrap;rounded=0;" vertex="1" parent="1">
          <mxGeometry x="480" y="267" width="110" height="30" as="geometry" />
        </mxCell>
        <mxCell id="66eMBhZX9WvoQs9t0sJY-29" value="" style="endArrow=none;dashed=1;html=1;dashPattern=1 3;strokeWidth=2;rounded=0;entryX=0.5;entryY=1;entryDx=0;entryDy=0;" edge="1" parent="1">
          <mxGeometry width="50" height="50" relative="1" as="geometry">
            <mxPoint x="765" y="732" as="sourcePoint" />
            <mxPoint x="765" y="112" as="targetPoint" />
          </mxGeometry>
        </mxCell>
        <mxCell id="66eMBhZX9WvoQs9t0sJY-30" value="" style="rounded=0;whiteSpace=wrap;html=1;" vertex="1" parent="1">
          <mxGeometry x="750" y="142" width="30" height="490" as="geometry" />
        </mxCell>
        <mxCell id="66eMBhZX9WvoQs9t0sJY-31" value="Key decryption tool" style="rounded=0;whiteSpace=wrap;html=1;" vertex="1" parent="1">
          <mxGeometry x="710" y="62" width="110" height="50" as="geometry" />
        </mxCell>
        <mxCell id="66eMBhZX9WvoQs9t0sJY-32" value="" style="endArrow=classic;html=1;rounded=0;" edge="1" parent="1">
          <mxGeometry width="50" height="50" relative="1" as="geometry">
            <mxPoint x="460" y="352" as="sourcePoint" />
            <mxPoint x="740" y="352" as="targetPoint" />
          </mxGeometry>
        </mxCell>
        <mxCell id="66eMBhZX9WvoQs9t0sJY-34" value="user&#39;s private key, sender&#39;s public key, and image" style="text;html=1;strokeColor=none;fillColor=none;align=center;verticalAlign=middle;whiteSpace=wrap;rounded=0;" vertex="1" parent="1">
          <mxGeometry x="460" y="322" width="150" height="30" as="geometry" />
        </mxCell>
        <mxCell id="66eMBhZX9WvoQs9t0sJY-35" value="" style="html=1;labelBackgroundColor=#ffffff;startArrow=none;startFill=0;startSize=6;endArrow=classic;endFill=1;endSize=6;jettySize=auto;orthogonalLoop=1;strokeWidth=1;dashed=1;fontSize=14;rounded=0;" edge="1" parent="1">
          <mxGeometry width="60" height="60" relative="1" as="geometry">
            <mxPoint x="740" y="372" as="sourcePoint" />
            <mxPoint x="460" y="372" as="targetPoint" />
          </mxGeometry>
        </mxCell>
        <mxCell id="66eMBhZX9WvoQs9t0sJY-36" value="decoded symmetric key" style="text;html=1;strokeColor=none;fillColor=none;align=center;verticalAlign=middle;whiteSpace=wrap;rounded=0;" vertex="1" parent="1">
          <mxGeometry x="460" y="382" width="140" height="30" as="geometry" />
        </mxCell>
        <mxCell id="66eMBhZX9WvoQs9t0sJY-37" value="" style="endArrow=none;dashed=1;html=1;dashPattern=1 3;strokeWidth=2;rounded=0;entryX=0.5;entryY=1;entryDx=0;entryDy=0;" edge="1" parent="1">
          <mxGeometry width="50" height="50" relative="1" as="geometry">
            <mxPoint x="905" y="732" as="sourcePoint" />
            <mxPoint x="905" y="112" as="targetPoint" />
          </mxGeometry>
        </mxCell>
        <mxCell id="66eMBhZX9WvoQs9t0sJY-38" value="" style="rounded=0;whiteSpace=wrap;html=1;" vertex="1" parent="1">
          <mxGeometry x="890" y="142" width="30" height="490" as="geometry" />
        </mxCell>
        <mxCell id="66eMBhZX9WvoQs9t0sJY-39" value="Key decryption tool" style="rounded=0;whiteSpace=wrap;html=1;" vertex="1" parent="1">
          <mxGeometry x="850" y="62" width="110" height="50" as="geometry" />
        </mxCell>
        <mxCell id="66eMBhZX9WvoQs9t0sJY-40" value="" style="endArrow=classic;html=1;rounded=0;" edge="1" parent="1">
          <mxGeometry width="50" height="50" relative="1" as="geometry">
            <mxPoint x="460" y="454" as="sourcePoint" />
            <mxPoint x="880" y="454" as="targetPoint" />
          </mxGeometry>
        </mxCell>
        <mxCell id="66eMBhZX9WvoQs9t0sJY-41" value="" style="html=1;labelBackgroundColor=#ffffff;startArrow=none;startFill=0;startSize=6;endArrow=classic;endFill=1;endSize=6;jettySize=auto;orthogonalLoop=1;strokeWidth=1;dashed=1;fontSize=14;rounded=0;" edge="1" parent="1">
          <mxGeometry width="60" height="60" relative="1" as="geometry">
            <mxPoint x="880" y="474" as="sourcePoint" />
            <mxPoint x="460" y="474" as="targetPoint" />
          </mxGeometry>
        </mxCell>
        <mxCell id="66eMBhZX9WvoQs9t0sJY-42" value="decoded key and images" style="text;html=1;strokeColor=none;fillColor=none;align=center;verticalAlign=middle;whiteSpace=wrap;rounded=0;" vertex="1" parent="1">
          <mxGeometry x="458" y="424" width="150" height="30" as="geometry" />
        </mxCell>
        <mxCell id="66eMBhZX9WvoQs9t0sJY-43" value="decoded images" style="text;html=1;strokeColor=none;fillColor=none;align=center;verticalAlign=middle;whiteSpace=wrap;rounded=0;" vertex="1" parent="1">
          <mxGeometry x="483" y="472" width="100" height="30" as="geometry" />
        </mxCell>
        <mxCell id="66eMBhZX9WvoQs9t0sJY-44" value="" style="html=1;labelBackgroundColor=#ffffff;startArrow=none;startFill=0;startSize=6;endArrow=classic;endFill=1;endSize=6;jettySize=auto;orthogonalLoop=1;strokeWidth=1;dashed=1;fontSize=14;rounded=0;" edge="1" parent="1">
          <mxGeometry width="60" height="60" relative="1" as="geometry">
            <mxPoint x="420" y="512" as="sourcePoint" />
            <mxPoint x="270" y="512" as="targetPoint" />
          </mxGeometry>
        </mxCell>
        <mxCell id="66eMBhZX9WvoQs9t0sJY-45" value="decoded images" style="text;html=1;strokeColor=none;fillColor=none;align=center;verticalAlign=middle;whiteSpace=wrap;rounded=0;" vertex="1" parent="1">
          <mxGeometry x="295" y="482" width="100" height="30" as="geometry" />
        </mxCell>
        <mxCell id="66eMBhZX9WvoQs9t0sJY-47" value="" style="endArrow=none;dashed=1;html=1;dashPattern=1 3;strokeWidth=2;rounded=0;" edge="1" parent="1">
          <mxGeometry width="50" height="50" relative="1" as="geometry">
            <mxPoint x="80" y="112" as="sourcePoint" />
            <mxPoint x="80" y="722" as="targetPoint" />
          </mxGeometry>
        </mxCell>
        <mxCell id="66eMBhZX9WvoQs9t0sJY-46" value="decoded images" style="text;html=1;strokeColor=none;fillColor=none;align=center;verticalAlign=middle;whiteSpace=wrap;rounded=0;" vertex="1" parent="1">
          <mxGeometry x="130" y="492" width="100" height="30" as="geometry" />
        </mxCell>
        <mxCell id="66eMBhZX9WvoQs9t0sJY-1" value="" style="shape=umlActor;verticalLabelPosition=bottom;verticalAlign=top;html=1;outlineConnect=0;" vertex="1" parent="1">
          <mxGeometry x="30" y="182" width="100" height="200" as="geometry" />
        </mxCell>
        <mxCell id="66eMBhZX9WvoQs9t0sJY-49" value="&lt;font style=&quot;font-size: 16px;&quot;&gt;&lt;b&gt;User Decrypts Image&lt;/b&gt;&lt;/font&gt;" style="text;html=1;strokeColor=none;fillColor=none;align=center;verticalAlign=middle;whiteSpace=wrap;rounded=0;" vertex="1" parent="1">
          <mxGeometry x="330" width="400" height="30" as="geometry" />
        </mxCell>
        <mxCell id="66eMBhZX9WvoQs9t0sJY-50" value="Dylan Nguyen" style="text;html=1;strokeColor=none;fillColor=none;align=center;verticalAlign=middle;whiteSpace=wrap;rounded=0;fontSize=16;" vertex="1" parent="1">
          <mxGeometry x="790" y="10" width="170" height="30" as="geometry" />
        </mxCell>
      </root>
    </mxGraphModel>
  </diagram>
</mxfile>
